<mxfile host="app.diagrams.net" modified="2024-02-09T01:03:00.083Z" agent="Mozilla/5.0 (Windows NT 10.0; Win64; x64) AppleWebKit/537.36 (KHTML, like Gecko) Chrome/121.0.0.0 Safari/537.36" version="21.6.2" etag="FgE7XRhgRvUCKdyFYKWh" type="github">
  <diagram name="PÃ¡gina-1" id="jmvWor8zuASmEPvGdmJ3">
    <mxGraphModel>
      <root>
        <mxCell id="0" />
        <mxCell id="1" parent="0" />
      </root>
    </mxGraphModel>
  </diagram>
</mxfile>
